<svg xmlns="http://www.w3.org/2000/svg" xmlns:xlink="http://www.w3.org/1999/xlink" version="1.1" x="0px" y="0px" viewBox="0 0 100 125" enable-background="new 0 0 100 100" xml:space="preserve"><g><path fill="#000000" d="M67,5h-4H37h-4H5v9v2v8v2v7v4v7v2v8v2v7v4v7v2v8v2v9h28h4h26h4h28v-9v-2v-8v-2v-7v-4v-7v-2v-8v-2v-7v-4v-7   v-2v-8v-2V5H67z M76,84v-8h8v8H76z M84,86v7h-8v-7H84z M46,84v-8h8v8H46z M54,86v7h-8v-7H54z M16,84v-8h8v8H16z M24,86v7h-8v-7H24z    M24,16v8h-8v-8H24z M16,14V7h8v7H16z M54,16v8h-8v-8H54z M46,14V7h8v7H46z M46,44v-7h8v7H46z M54,46v8h-8v-8H54z M44,44h-7v-7h7   V44z M44,46v8h-7v-8H44z M44,56v7h-7v-7H44z M46,56h8v7h-8V56z M56,56h7v7h-7V56z M56,54v-8h7v8H56z M56,44v-7h7v7H56z M56,33v-7h7   v7H56z M54,33h-8v-7h8V33z M44,33h-7v-7h7V33z M33,33h-7v-7h7V33z M33,37v7h-7v-7H33z M33,46v8h-7v-8H33z M33,56v7h-7v-7H33z    M33,67v7h-7v-7H33z M37,67h7v7h-7V67z M46,67h8v7h-8V67z M56,67h7v7h-7V67z M67,67h7v7h-7V67z M67,63v-7h7v7H67z M67,54v-8h7v8H67   z M67,44v-7h7v7H67z M67,33v-7h7v7H67z M67,24v-8h7v8H67z M63,24h-7v-8h7V24z M44,24h-7v-8h7V24z M33,24h-7v-8h7V24z M24,26v7h-8   v-7H24z M24,37v7h-8v-7H24z M24,46v8h-8v-8H24z M24,56v7h-8v-7H24z M24,67v7h-8v-7H24z M26,76h7v8h-7V76z M37,76h7v8h-7V76z M56,76   h7v8h-7V76z M67,76h7v8h-7V76z M76,74v-7h8v7H76z M76,63v-7h8v7H76z M76,54v-8h8v8H76z M76,44v-7h8v7H76z M76,33v-7h8v7H76z M76,24   v-8h8v8H76z M76,14V7h8v7H76z M74,7v7h-7V7H74z M63,14h-7V7h7V14z M44,7v7h-7V7H44z M33,14h-7V7h7V14z M7,7h7v7H7V7z M7,16h7v8H7   V16z M7,26h7v7H7V26z M7,37h7v7H7V37z M7,46h7v8H7V46z M7,56h7v7H7V56z M7,67h7v7H7V67z M7,76h7v8H7V76z M7,86h7v7H7V86z M26,93v-7   h7v7H26z M37,86h7v7h-7V86z M56,93v-7h7v7H56z M67,86h7v7h-7V86z M93,93h-7v-7h7V93z M93,84h-7v-8h7V84z M93,74h-7v-7h7V74z M93,63   h-7v-7h7V63z M93,54h-7v-8h7V54z M93,44h-7v-7h7V44z M93,33h-7v-7h7V33z M93,24h-7v-8h7V24z M86,14V7h7v7H86z"/></g><text x="0" y="115" fill="#000000" font-size="5px" font-weight="bold" font-family="'Helvetica Neue', Helvetica, Arial-Unicode, Arial, Sans-serif">Created by Jonathan Coutiño</text><text x="0" y="120" fill="#000000" font-size="5px" font-weight="bold" font-family="'Helvetica Neue', Helvetica, Arial-Unicode, Arial, Sans-serif">from the Noun Project</text></svg>